<svg width="123" height="23" viewBox="0 0 123 23" fill="none" xmlns="http://www.w3.org/2000/svg">
<path d="M12.5761 13.8521C12.8708 13.4701 13.0044 13.1392 13.1336 12.8182C13.2032 12.6457 13.2955 12.3843 13.2075 12.1081C13.1826 12.03 13.1421 11.9043 13.0441 11.8667C12.8765 11.8028 12.5853 11.9945 12.3644 12.3403C12.0747 12.7941 11.7146 13.3969 11.4177 13.7051C11.1208 14.0133 10.5228 14.5551 10.0661 14.7979C9.88433 14.8945 9.68405 15.001 9.52567 15.1232C9.73305 15.1388 9.96032 15.1459 10.2089 15.1459C11.0718 15.1459 11.8957 14.5565 12.5761 13.8521Z" fill="#629560"/>
<path d="M14.5093 14.4819C14.1464 14.9342 13.7061 15.557 13.2146 15.8183C12.7288 16.0768 12.9447 15.7501 13.042 15.6351C13.9042 14.614 15.7387 12.2373 14.9191 11.3646C14.9078 11.3525 14.8943 11.3426 14.8793 11.3362C14.7963 11.2985 14.515 11.2062 14.282 11.5556C14.1251 11.7914 13.4759 12.9211 12.5761 13.8513C11.895 14.5557 11.0711 15.1451 10.2089 15.1451C9.96032 15.1451 9.73305 15.1373 9.52566 15.1224C8.08035 15.0145 7.62084 14.5181 7.78703 13.4537C7.79058 13.4317 7.7991 13.4111 7.81331 13.394C7.94825 13.2243 8.70251 12.2593 8.82822 11.6941C8.96601 11.0727 9.1045 10.1063 8.13788 9.69232C8.13788 9.69232 7.8616 9.48497 7.79271 9.89967C7.72382 10.3144 7.66416 11.5023 6.89499 11.6941C6.13433 11.8844 5.0413 12.7606 4.5484 13.8073C4.51076 13.8868 4.40777 13.9074 4.34527 13.8449C3.87794 13.3827 2.34954 11.687 2.40778 9.34651C2.45962 7.27588 3.82326 6.13689 4.48519 5.95866C5.39357 5.71439 5.06544 5.7222 4.44186 5.72078C4.14073 5.72007 3.75366 5.72291 3.26928 5.79179C2.42553 5.91179 1.40707 6.27465 0.78562 7.37955C0.34457 8.16207 -0.112816 9.10578 0.0249678 10.9009C0.162752 12.696 0.370138 13.2477 0.922694 14.5593C1.47525 15.8708 3.2011 17.5275 3.82255 17.8726C4.44399 18.2177 6.58888 19.5605 9.0001 19.1841C11.2096 18.839 12.314 18.2177 13.6258 17.0446C14.5207 16.2443 14.8964 15.3823 15.0242 14.7198C15.0818 14.4215 14.6997 14.2461 14.5093 14.4833V14.4819Z" fill="#629560"/>
<path d="M4.88721 1.375C4.59601 1.375 4.64502 1.8813 4.88721 2.19374C5.12939 2.50618 6.50297 4.42129 6.58394 5.3785C6.58394 5.3785 6.422 3.81203 6.0186 3.0288C5.7899 2.585 5.37229 1.375 4.88721 1.375Z" fill="#629560"/>
<path d="M10.373 1.91467C10.373 1.91467 10.1173 2.39611 9.54274 2.51115C8.83251 2.65317 8.54842 2.58216 7.90922 3.07922C7.25865 3.58481 7.33607 4.44828 6.88507 4.88783C7.03138 4.82818 7.27286 4.72735 7.62513 4.57041C8.26433 4.28638 8.4774 4.14436 8.97456 3.78931C9.31121 3.54859 9.96888 2.79519 9.96888 2.79519C9.96888 2.79519 9.74373 3.57132 9.1166 4.07335C8.53351 4.53988 7.28706 4.83528 6.8588 4.92688C6.96604 4.93611 7.65354 4.99079 8.19331 4.92546C8.78067 4.85445 9.21177 4.66486 9.68479 4.14436C10.395 3.36326 10.373 1.91467 10.373 1.91467Z" fill="#629560"/>
<path d="M24.288 18L20.8148 6.12H22.902L25.2698 14.7L27.6293 6.1365L29.7165 6.12L32.0843 14.7L34.4438 6.12H36.531L33.066 18H31.1025L28.6688 9.552L26.2515 18H24.288ZM44.0399 18V13.71C44.0399 13.4295 44.0207 13.1187 43.9822 12.7777C43.9437 12.4367 43.8529 12.1095 43.7099 11.796C43.5724 11.477 43.3634 11.2157 43.0829 11.0122C42.8079 10.8087 42.4339 10.707 41.9609 10.707C41.7079 10.707 41.4577 10.7482 41.2102 10.8307C40.9627 10.9132 40.7372 11.0562 40.5337 11.2597C40.3357 11.4577 40.1762 11.7327 40.0552 12.0847C39.9342 12.4312 39.8737 12.8767 39.8737 13.4212L38.6939 12.918C38.6939 12.159 38.8397 11.4715 39.1312 10.8555C39.4282 10.2395 39.8627 9.75 40.4347 9.387C41.0067 9.0185 41.7107 8.83425 42.5467 8.83425C43.2067 8.83425 43.7512 8.94425 44.1802 9.16425C44.6092 9.38425 44.9502 9.66475 45.2032 10.0057C45.4562 10.3467 45.6432 10.7097 45.7642 11.0947C45.8852 11.4797 45.9622 11.8455 45.9952 12.192C46.0337 12.533 46.0529 12.8107 46.0529 13.0252V18H44.0399ZM37.8607 18V6.12H39.6344V12.3735H39.8737V18H37.8607ZM50.6973 18.2475C50.0538 18.2475 49.5093 18.1265 49.0638 17.8845C48.6183 17.637 48.28 17.3097 48.049 16.9027C47.8235 16.4957 47.7108 16.0475 47.7108 15.558C47.7108 15.129 47.7823 14.744 47.9253 14.403C48.0683 14.0565 48.2883 13.7595 48.5853 13.512C48.8823 13.259 49.2673 13.0527 49.7403 12.8932C50.0978 12.7777 50.5158 12.6732 50.9943 12.5797C51.4783 12.4862 52.0008 12.401 52.5618 12.324C53.1283 12.2415 53.7195 12.1535 54.3355 12.06L53.626 12.4642C53.6315 11.8482 53.494 11.3945 53.2135 11.103C52.933 10.8115 52.46 10.6657 51.7945 10.6657C51.393 10.6657 51.0053 10.7592 50.6313 10.9462C50.2573 11.1332 49.996 11.455 49.8475 11.9115L48.0325 11.3422C48.2525 10.5887 48.6705 9.98375 49.2865 9.52725C49.908 9.07075 50.744 8.8425 51.7945 8.8425C52.5865 8.8425 53.2823 8.97175 53.8818 9.23025C54.4868 9.48875 54.935 9.91225 55.2265 10.5007C55.386 10.8142 55.4823 11.136 55.5153 11.466C55.5483 11.7905 55.5648 12.1452 55.5648 12.5302V18H53.824V16.0695L54.1128 16.383C53.7113 17.0265 53.241 17.4995 52.702 17.802C52.1685 18.099 51.5003 18.2475 50.6973 18.2475ZM51.0933 16.6635C51.5443 16.6635 51.9293 16.5837 52.2483 16.4242C52.5673 16.2647 52.8203 16.0695 53.0073 15.8385C53.1998 15.6075 53.329 15.3902 53.395 15.1867C53.4995 14.9337 53.5573 14.645 53.5683 14.3205C53.5848 13.9905 53.593 13.7237 53.593 13.5202L54.2035 13.7017C53.604 13.7952 53.0898 13.8777 52.6608 13.9492C52.2318 14.0207 51.8633 14.0895 51.5553 14.1555C51.2473 14.216 50.975 14.2847 50.7385 14.3617C50.5075 14.4442 50.3123 14.5405 50.1528 14.6505C49.9933 14.7605 49.8695 14.887 49.7815 15.03C49.699 15.173 49.6578 15.3407 49.6578 15.5332C49.6578 15.7532 49.7128 15.9485 49.8228 16.119C49.9328 16.284 50.0923 16.416 50.3013 16.515C50.5158 16.614 50.7798 16.6635 51.0933 16.6635ZM62.9349 18C62.3464 18.11 61.7689 18.1568 61.2024 18.1403C60.6414 18.1293 60.1381 18.0275 59.6926 17.835C59.2471 17.637 58.9089 17.3262 58.6779 16.9027C58.4744 16.5177 58.3671 16.1245 58.3561 15.723C58.3451 15.3215 58.3396 14.8677 58.3396 14.3617V6.615H60.3196V14.2462C60.3196 14.6037 60.3224 14.9172 60.3279 15.1867C60.3389 15.4562 60.3966 15.6762 60.5011 15.8467C60.6991 16.1767 61.0154 16.361 61.4499 16.3995C61.8844 16.438 62.3794 16.416 62.9349 16.3335V18ZM56.7226 10.6492V9.09H62.9349V10.6492H56.7226ZM69.2481 18.2475C68.3791 18.2475 67.5953 18.0963 66.8968 17.7937C66.2038 17.4912 65.6318 17.0595 65.1808 16.4985C64.7353 15.932 64.4521 15.261 64.3311 14.4855L66.3936 14.172C66.5696 14.876 66.9298 15.4205 67.4743 15.8055C68.0243 16.1905 68.6568 16.383 69.3718 16.383C69.7953 16.383 70.1941 16.317 70.5681 16.185C70.9421 16.053 71.2446 15.8605 71.4756 15.6075C71.7121 15.3545 71.8303 15.0437 71.8303 14.6752C71.8303 14.5102 71.8028 14.359 71.7478 14.2215C71.6928 14.0785 71.6103 13.952 71.5003 13.842C71.3958 13.732 71.2583 13.633 71.0878 13.545C70.9228 13.4515 70.7303 13.3717 70.5103 13.3057L67.4413 12.3982C67.1773 12.3212 66.8913 12.2195 66.5833 12.093C66.2808 11.961 65.9921 11.7822 65.7171 11.5567C65.4476 11.3257 65.2248 11.0342 65.0488 10.6822C64.8783 10.3247 64.7931 9.88475 64.7931 9.36225C64.7931 8.59775 64.9856 7.957 65.3706 7.44C65.7611 6.9175 66.2836 6.527 66.9381 6.2685C67.5981 6.01 68.3296 5.8835 69.1326 5.889C69.9466 5.8945 70.6726 6.03475 71.3106 6.30975C71.9486 6.57925 72.4821 6.9725 72.9111 7.4895C73.3401 8.0065 73.6426 8.63075 73.8186 9.36225L71.6818 9.7335C71.5938 9.3155 71.4233 8.96075 71.1703 8.66925C70.9228 8.37225 70.6176 8.14675 70.2546 7.99275C69.8971 7.83875 69.5148 7.75625 69.1078 7.74525C68.7118 7.73975 68.3433 7.80025 68.0023 7.92675C67.6668 8.04775 67.3946 8.22375 67.1856 8.45475C66.9821 8.68575 66.8803 8.95525 66.8803 9.26325C66.8803 9.55475 66.9683 9.794 67.1443 9.981C67.3203 10.1625 67.5376 10.3082 67.7961 10.4182C68.0601 10.5227 68.3268 10.6107 68.5963 10.6822L70.7248 11.2762C71.0163 11.3532 71.3436 11.4577 71.7066 11.5897C72.0696 11.7217 72.4188 11.906 72.7543 12.1425C73.0898 12.379 73.3648 12.6897 73.5793 13.0747C73.7993 13.4597 73.9093 13.9492 73.9093 14.5432C73.9093 15.1592 73.7801 15.701 73.5216 16.1685C73.2686 16.6305 72.9248 17.0155 72.4903 17.3235C72.0558 17.6315 71.5581 17.8625 70.9971 18.0165C70.4416 18.1705 69.8586 18.2475 69.2481 18.2475ZM79.0363 18.2558C78.3763 18.2558 77.8318 18.1458 77.4028 17.9257C76.9738 17.7057 76.6328 17.4252 76.3798 17.0842C76.1268 16.7432 75.9398 16.3802 75.8188 15.9952C75.6978 15.6102 75.618 15.2472 75.5795 14.9062C75.5465 14.5597 75.53 14.2792 75.53 14.0647V9.09H77.543V13.38C77.543 13.655 77.5623 13.9657 77.6008 14.3122C77.6393 14.6532 77.7273 14.9832 77.8648 15.3022C78.0078 15.6157 78.2168 15.8742 78.4918 16.0777C78.7723 16.2812 79.149 16.383 79.622 16.383C79.875 16.383 80.1253 16.3417 80.3728 16.2592C80.6203 16.1767 80.843 16.0365 81.041 15.8385C81.2445 15.635 81.4068 15.3572 81.5278 15.0052C81.6488 14.6532 81.7093 14.2077 81.7093 13.6687L82.889 14.172C82.889 14.931 82.7405 15.6185 82.4435 16.2345C82.152 16.8505 81.7203 17.3427 81.1483 17.7112C80.5763 18.0743 79.8723 18.2558 79.0363 18.2558ZM81.9485 18V15.2362H81.7093V9.09H83.7058V18H81.9485ZM90.3054 18.2475C89.4364 18.2475 88.7077 18.0413 88.1192 17.6287C87.5307 17.2162 87.0879 16.6552 86.7909 15.9457C86.4939 15.2307 86.3454 14.4305 86.3454 13.545C86.3454 12.6485 86.4939 11.8455 86.7909 11.136C87.0879 10.4265 87.5224 9.86825 88.0944 9.46125C88.6719 9.04875 89.3842 8.8425 90.2312 8.8425C91.0727 8.8425 91.8014 9.04875 92.4174 9.46125C93.0389 9.86825 93.5202 10.4265 93.8612 11.136C94.2022 11.84 94.3727 12.643 94.3727 13.545C94.3727 14.436 94.2049 15.2362 93.8694 15.9457C93.5339 16.6552 93.0609 17.2162 92.4504 17.6287C91.8399 18.0413 91.1249 18.2475 90.3054 18.2475ZM86.0072 21.96V9.09H87.7644V15.3435H88.0119V21.96H86.0072ZM90.0002 16.4655C90.5172 16.4655 90.9434 16.3362 91.2789 16.0777C91.6144 15.8192 91.8619 15.47 92.0214 15.03C92.1864 14.5845 92.2689 14.0895 92.2689 13.545C92.2689 13.006 92.1864 12.5165 92.0214 12.0765C91.8564 11.631 91.6007 11.279 91.2542 11.0205C90.9077 10.7565 90.4677 10.6245 89.9342 10.6245C89.4282 10.6245 89.0157 10.7482 88.6967 10.9957C88.3777 11.2377 88.1412 11.5787 87.9872 12.0187C87.8387 12.4532 87.7644 12.962 87.7644 13.545C87.7644 14.1225 87.8387 14.6312 87.9872 15.0712C88.1412 15.5112 88.3804 15.855 88.7049 16.1025C89.0349 16.3445 89.4667 16.4655 90.0002 16.4655ZM100.473 18.2475C99.6039 18.2475 98.8751 18.0413 98.2866 17.6287C97.6981 17.2162 97.2554 16.6552 96.9584 15.9457C96.6614 15.2307 96.5129 14.4305 96.5129 13.545C96.5129 12.6485 96.6614 11.8455 96.9584 11.136C97.2554 10.4265 97.6899 9.86825 98.2619 9.46125C98.8394 9.04875 99.5516 8.8425 100.399 8.8425C101.24 8.8425 101.969 9.04875 102.585 9.46125C103.206 9.86825 103.688 10.4265 104.029 11.136C104.37 11.84 104.54 12.643 104.54 13.545C104.54 14.436 104.372 15.2362 104.037 15.9457C103.701 16.6552 103.228 17.2162 102.618 17.6287C102.007 18.0413 101.292 18.2475 100.473 18.2475ZM96.1746 21.96V9.09H97.9319V15.3435H98.1794V21.96H96.1746ZM100.168 16.4655C100.685 16.4655 101.111 16.3362 101.446 16.0777C101.782 15.8192 102.029 15.47 102.189 15.03C102.354 14.5845 102.436 14.0895 102.436 13.545C102.436 13.006 102.354 12.5165 102.189 12.0765C102.024 11.631 101.768 11.279 101.422 11.0205C101.075 10.7565 100.635 10.6245 100.102 10.6245C99.5956 10.6245 99.1831 10.7482 98.8641 10.9957C98.5451 11.2377 98.3086 11.5787 98.1546 12.0187C98.0061 12.4532 97.9319 12.962 97.9319 13.545C97.9319 14.1225 98.0061 14.6312 98.1546 15.0712C98.3086 15.5112 98.5479 15.855 98.8724 16.1025C99.2024 16.3445 99.6341 16.4655 100.168 16.4655ZM110.409 18.2475C109.507 18.2475 108.715 18.0523 108.033 17.6617C107.351 17.2712 106.818 16.7295 106.433 16.0365C106.053 15.3435 105.864 14.546 105.864 13.644C105.864 12.6705 106.051 11.8262 106.425 11.1112C106.799 10.3907 107.318 9.8325 107.984 9.4365C108.649 9.0405 109.419 8.8425 110.294 8.8425C111.218 8.8425 112.002 9.05975 112.645 9.49425C113.294 9.92325 113.775 10.531 114.089 11.3175C114.402 12.104 114.521 13.0307 114.444 14.0977H112.472V13.3717C112.466 12.4037 112.296 11.697 111.96 11.2515C111.625 10.806 111.097 10.5832 110.376 10.5832C109.562 10.5832 108.957 10.8362 108.561 11.3422C108.165 11.8427 107.967 12.577 107.967 13.545C107.967 14.447 108.165 15.1455 108.561 15.6405C108.957 16.1355 109.535 16.383 110.294 16.383C110.783 16.383 111.204 16.2757 111.556 16.0612C111.914 15.8412 112.189 15.525 112.381 15.1125L114.345 15.7065C114.004 16.5095 113.476 17.1337 112.761 17.5792C112.051 18.0247 111.267 18.2475 110.409 18.2475ZM107.34 14.0977V12.5962H113.47V14.0977H107.34ZM116.284 18V9.09H118.042V11.2597L117.827 10.9792C117.937 10.6822 118.083 10.4127 118.264 10.1707C118.451 9.92325 118.674 9.71975 118.933 9.56025C119.153 9.41175 119.395 9.29625 119.659 9.21375C119.928 9.12575 120.203 9.0735 120.484 9.057C120.764 9.035 121.036 9.046 121.3 9.09V10.9462C121.036 10.8692 120.731 10.8445 120.385 10.872C120.044 10.8995 119.736 10.9957 119.461 11.1607C119.186 11.3092 118.96 11.499 118.784 11.73C118.614 11.961 118.487 12.225 118.405 12.522C118.322 12.8135 118.281 13.1297 118.281 13.4707V18H116.284Z" fill="#629560"/>
</svg>
