<svg width="21" height="21" viewBox="0 0 21 21" fill="none" xmlns="http://www.w3.org/2000/svg">
<path d="M10.5 2.9V1ZM10.5 18.1V20ZM5.1935 5.1935L3.85 3.85ZM15.9416 15.9416L17.2851 17.2851ZM2.9 10.5H1ZM18.1 10.5H20ZM15.9421 5.1935L17.2856 3.85ZM5.19396 15.9416L3.85047 17.2851ZM10.5 15.25C7.87665 15.25 5.75 13.1233 5.75 10.5C5.75 7.87665 7.87665 5.75 10.5 5.75C13.1233 5.75 15.25 7.87665 15.25 10.5C15.25 13.1233 13.1233 15.25 10.5 15.25Z" fill="#FFDA84"/>
<path d="M10.5 2.9V1M10.5 18.1V20M5.1935 5.1935L3.85 3.85M15.9416 15.9416L17.2851 17.2851M2.9 10.5H1M18.1 10.5H20M15.9421 5.1935L17.2856 3.85M5.19396 15.9416L3.85047 17.2851M10.5 15.25C7.87665 15.25 5.75 13.1233 5.75 10.5C5.75 7.87665 7.87665 5.75 10.5 5.75C13.1233 5.75 15.25 7.87665 15.25 10.5C15.25 13.1233 13.1233 15.25 10.5 15.25Z" stroke="#FFDA84" stroke-linecap="round" stroke-linejoin="round"/>
</svg>
